<svg width="410" height="146" viewBox="0 0 410 146" fill="none" xmlns="http://www.w3.org/2000/svg">
<rect width="410" height="146" fill="white"/>
<path d="M207.42 55.28C208.007 55.28 208.62 55.3333 209.26 55.44C209.9 55.5333 210.4 55.66 210.76 55.82C210.88 55.86 210.953 55.9133 210.98 55.98C211.02 56.0333 211.053 56.1333 211.08 56.28L211.32 59.06C211.32 59.1 211.287 59.1267 211.22 59.14C211.153 59.1533 211.113 59.1333 211.1 59.08C210.647 58.0267 210.04 57.2133 209.28 56.64C208.52 56.0667 207.64 55.78 206.64 55.78C205.32 55.78 204.3 56.2667 203.58 57.24C202.86 58.2133 202.5 59.52 202.5 61.16C202.5 62.3867 202.693 63.5067 203.08 64.52C203.48 65.5333 204.033 66.34 204.74 66.94C205.46 67.5267 206.273 67.82 207.18 67.82C208.033 67.82 208.793 67.54 209.46 66.98C210.14 66.4067 210.747 65.54 211.28 64.38C211.293 64.3267 211.333 64.3067 211.4 64.32C211.48 64.3333 211.52 64.36 211.52 64.4L211.22 67.12C211.193 67.28 211.16 67.3867 211.12 67.44C211.093 67.48 211.02 67.5267 210.9 67.58C209.713 68.02 208.493 68.24 207.24 68.24C205.613 68.24 204.253 67.92 203.16 67.28C202.067 66.6267 201.26 65.8067 200.74 64.82C200.233 63.82 199.98 62.78 199.98 61.7C199.98 60.4333 200.32 59.3133 201 58.34C201.693 57.3667 202.607 56.6133 203.74 56.08C204.887 55.5467 206.113 55.28 207.42 55.28ZM222.399 67.76C222.452 67.76 222.479 67.8 222.479 67.88C222.479 67.96 222.452 68 222.399 68C222.052 68 221.772 67.9933 221.559 67.98L220.399 67.96L219.199 67.98C218.999 67.9933 218.726 68 218.379 68C218.352 68 218.339 67.96 218.339 67.88C218.339 67.8 218.352 67.76 218.379 67.76C218.792 67.76 219.072 67.6667 219.219 67.48C219.379 67.28 219.459 66.9133 219.459 66.38V63.5C219.459 62.78 219.326 62.2467 219.059 61.9C218.792 61.5533 218.379 61.38 217.819 61.38C217.499 61.38 217.166 61.4467 216.819 61.58C216.486 61.7133 216.192 61.8933 215.939 62.12V66.38C215.939 66.9133 216.012 67.28 216.159 67.48C216.319 67.6667 216.606 67.76 217.019 67.76C217.072 67.76 217.099 67.8 217.099 67.88C217.099 67.96 217.072 68 217.019 68C216.672 68 216.392 67.9933 216.179 67.98L215.019 67.96L213.819 67.98C213.619 67.9933 213.346 68 212.999 68C212.972 68 212.959 67.96 212.959 67.88C212.959 67.8 212.972 67.76 212.999 67.76C213.412 67.76 213.692 67.6667 213.839 67.48C213.999 67.28 214.079 66.9133 214.079 66.38V56.22C214.079 55.7533 214.032 55.42 213.939 55.22C213.859 55.02 213.712 54.92 213.499 54.92C213.312 54.92 213.059 54.9933 212.739 55.14H212.719C212.679 55.14 212.639 55.1067 212.599 55.04C212.572 54.96 212.572 54.9133 212.599 54.9L215.519 53.52L215.619 53.5C215.686 53.5 215.752 53.5333 215.819 53.6C215.899 53.6533 215.939 53.7067 215.939 53.76V61.68C216.886 60.5867 217.899 60.04 218.979 60.04C219.699 60.04 220.266 60.2733 220.679 60.74C221.106 61.1933 221.319 61.7933 221.319 62.54V66.38C221.319 66.9133 221.392 67.28 221.539 67.48C221.699 67.6667 221.986 67.76 222.399 67.76ZM228.935 60.08C229.241 60.08 229.535 60.1933 229.815 60.42C230.108 60.6333 230.255 60.8933 230.255 61.2C230.255 61.48 230.168 61.7133 229.995 61.9C229.821 62.0733 229.595 62.16 229.315 62.16C229.115 62.16 228.948 62.12 228.815 62.04C228.695 61.96 228.568 61.84 228.435 61.68C228.315 61.5467 228.208 61.4533 228.115 61.4C228.035 61.3333 227.935 61.3 227.815 61.3C227.681 61.3 227.535 61.3533 227.375 61.46C227.228 61.5533 226.995 61.76 226.675 62.08V66.38C226.675 66.9133 226.801 67.28 227.055 67.48C227.308 67.6667 227.775 67.76 228.455 67.76C228.508 67.76 228.535 67.8 228.535 67.88C228.535 67.96 228.508 68 228.455 68C227.988 68 227.621 67.9933 227.355 67.98L225.735 67.96L224.555 67.98C224.355 67.9933 224.081 68 223.735 68C223.695 68 223.675 67.96 223.675 67.88C223.675 67.8 223.695 67.76 223.735 67.76C224.148 67.76 224.428 67.6667 224.575 67.48C224.721 67.28 224.795 66.9133 224.795 66.38V62.62C224.795 62.2067 224.741 61.9067 224.635 61.72C224.541 61.52 224.388 61.42 224.175 61.42C223.948 61.42 223.628 61.5133 223.215 61.7H223.175C223.135 61.7 223.101 61.6667 223.075 61.6C223.061 61.5333 223.068 61.4933 223.095 61.48L225.875 60.12C225.955 60.0933 226.001 60.08 226.015 60.08C226.161 60.08 226.295 60.22 226.415 60.5C226.548 60.7667 226.628 61.1333 226.655 61.6C227.201 61.04 227.648 60.6467 227.995 60.42C228.355 60.1933 228.668 60.08 228.935 60.08ZM231.513 68C231.473 68 231.453 67.96 231.453 67.88C231.453 67.8 231.473 67.76 231.513 67.76C231.926 67.76 232.206 67.6667 232.353 67.48C232.499 67.28 232.573 66.9133 232.573 66.38V62.8C232.573 62.3467 232.526 62.02 232.433 61.82C232.339 61.62 232.186 61.52 231.973 61.52C231.799 61.52 231.553 61.5933 231.233 61.74H231.213C231.159 61.74 231.119 61.7067 231.093 61.64C231.066 61.56 231.073 61.5133 231.113 61.5L234.133 60.1L234.193 60.08C234.259 60.08 234.326 60.1133 234.393 60.18C234.459 60.2467 234.493 60.3067 234.493 60.36V60.8C234.466 61.3333 234.453 61.9867 234.453 62.76V66.38C234.453 66.9133 234.526 67.28 234.673 67.48C234.833 67.6667 235.119 67.76 235.533 67.76C235.573 67.76 235.593 67.8 235.593 67.88C235.593 67.96 235.573 68 235.533 68C235.186 68 234.913 67.9933 234.713 67.98L233.513 67.96L232.333 67.98C232.133 67.9933 231.859 68 231.513 68ZM233.433 58.1C233.046 58.1 232.746 57.9933 232.533 57.78C232.319 57.5667 232.213 57.2667 232.213 56.88C232.213 56.5333 232.319 56.26 232.533 56.06C232.759 55.8467 233.059 55.74 233.433 55.74C233.806 55.74 234.093 55.84 234.293 56.04C234.493 56.24 234.593 56.52 234.593 56.88C234.593 57.2667 234.493 57.5667 234.293 57.78C234.093 57.9933 233.806 58.1 233.433 58.1ZM238.547 61.24C238.547 61.6267 238.68 61.96 238.947 62.24C239.227 62.52 239.627 62.8133 240.147 63.12C240.653 63.4133 241.027 63.6467 241.267 63.82C241.52 63.98 241.747 64.2133 241.947 64.52C242.147 64.8133 242.247 65.1733 242.247 65.6C242.247 66.0533 242.133 66.48 241.907 66.88C241.68 67.28 241.34 67.6067 240.887 67.86C240.433 68.1 239.893 68.22 239.267 68.22C238.533 68.22 237.84 68.04 237.187 67.68C237.107 67.6 237.067 67.52 237.067 67.44L237.027 65.46C237.027 65.42 237.06 65.4 237.127 65.4C237.207 65.3867 237.253 65.3933 237.267 65.42C237.48 66.0867 237.833 66.6533 238.327 67.12C238.82 67.5867 239.32 67.82 239.827 67.82C240.107 67.82 240.327 67.7333 240.487 67.56C240.66 67.3867 240.747 67.1333 240.747 66.8C240.747 66.3067 240.607 65.92 240.327 65.64C240.047 65.3467 239.633 65.0467 239.087 64.74C238.62 64.4867 238.267 64.28 238.027 64.12C237.787 63.96 237.573 63.7333 237.387 63.44C237.2 63.1467 237.107 62.7867 237.107 62.36C237.107 61.5733 237.387 61 237.947 60.64C238.507 60.2667 239.193 60.08 240.007 60.08C240.313 60.08 240.587 60.1 240.827 60.14C241.08 60.18 241.36 60.26 241.667 60.38C241.787 60.42 241.847 60.4933 241.847 60.6C241.847 60.9333 241.84 61.1933 241.827 61.38L241.807 62.38C241.807 62.42 241.767 62.44 241.687 62.44C241.607 62.44 241.567 62.42 241.567 62.38C241.567 62.1267 241.46 61.8533 241.247 61.56C241.033 61.2533 240.753 60.9933 240.407 60.78C240.073 60.5667 239.727 60.46 239.367 60.46C238.82 60.46 238.547 60.72 238.547 61.24ZM249.605 66.6C249.658 66.6 249.698 66.6267 249.725 66.68C249.765 66.7333 249.765 66.7733 249.725 66.8C249.232 67.2933 248.752 67.66 248.285 67.9C247.818 68.1267 247.325 68.24 246.805 68.24C246.218 68.24 245.718 68.1 245.305 67.82C244.892 67.54 244.685 67.0667 244.685 66.4V61.96C244.685 61.5467 244.612 61.26 244.465 61.1C244.318 60.94 244.052 60.86 243.665 60.86C243.652 60.86 243.632 60.84 243.605 60.8C243.592 60.76 243.585 60.72 243.585 60.68C243.585 60.6267 243.592 60.5867 243.605 60.56C243.618 60.52 243.638 60.5 243.665 60.5C244.345 60.4733 244.892 60.3267 245.305 60.06C245.732 59.7933 246.058 59.3867 246.285 58.84C246.312 58.7867 246.365 58.76 246.445 58.76C246.538 58.76 246.585 58.7867 246.585 58.84V60.44C247.358 60.4267 248.225 60.3667 249.185 60.26C249.212 60.26 249.238 60.3133 249.265 60.42C249.305 60.5133 249.325 60.62 249.325 60.74C249.325 60.8733 249.298 61.0067 249.245 61.14C249.205 61.26 249.158 61.3133 249.105 61.3C248.238 61.1133 247.398 61.0133 246.585 61V65.74C246.585 66.2467 246.712 66.62 246.965 66.86C247.232 67.1 247.578 67.22 248.005 67.22C248.538 67.22 249.058 67.02 249.565 66.62L249.605 66.6ZM265.224 67.76C265.277 67.76 265.304 67.8 265.304 67.88C265.304 67.96 265.277 68 265.224 68C264.877 68 264.604 67.9933 264.404 67.98L263.204 67.96L262.044 67.98C261.83 67.9933 261.55 68 261.204 68C261.164 68 261.144 67.96 261.144 67.88C261.144 67.8 261.164 67.76 261.204 67.76C261.617 67.76 261.897 67.6667 262.044 67.48C262.204 67.28 262.284 66.9133 262.284 66.38V63.5C262.284 62.78 262.157 62.2467 261.904 61.9C261.664 61.5533 261.29 61.38 260.784 61.38C260.437 61.38 260.097 61.4533 259.764 61.6C259.43 61.7467 259.144 61.9467 258.904 62.2V62.32V66.38C258.904 66.9133 258.977 67.28 259.124 67.48C259.284 67.6667 259.57 67.76 259.984 67.76C260.037 67.76 260.064 67.8 260.064 67.88C260.064 67.96 260.037 68 259.984 68C259.637 68 259.364 67.9933 259.164 67.98L257.964 67.96L256.804 67.98C256.59 67.9933 256.31 68 255.964 68C255.924 68 255.904 67.96 255.904 67.88C255.904 67.8 255.924 67.76 255.964 67.76C256.377 67.76 256.657 67.6667 256.804 67.48C256.964 67.28 257.044 66.9133 257.044 66.38V63.5C257.044 62.78 256.917 62.2467 256.664 61.9C256.424 61.5533 256.05 61.38 255.544 61.38C255.224 61.38 254.904 61.4467 254.584 61.58C254.277 61.7 254.004 61.8733 253.764 62.1V66.38C253.764 66.9133 253.837 67.28 253.984 67.48C254.144 67.6667 254.43 67.76 254.844 67.76C254.884 67.76 254.904 67.8 254.904 67.88C254.904 67.96 254.884 68 254.844 68C254.497 68 254.224 67.9933 254.024 67.98L252.824 67.96L251.644 67.98C251.444 67.9933 251.17 68 250.824 68C250.784 68 250.764 67.96 250.764 67.88C250.764 67.8 250.784 67.76 250.824 67.76C251.237 67.76 251.517 67.6667 251.664 67.48C251.81 67.28 251.884 66.9133 251.884 66.38V62.62C251.884 62.2067 251.83 61.9067 251.724 61.72C251.63 61.52 251.477 61.42 251.264 61.42C251.037 61.42 250.717 61.5133 250.304 61.7H250.264C250.224 61.7 250.19 61.6667 250.164 61.6C250.15 61.5333 250.157 61.4933 250.184 61.48L252.964 60.12C253.044 60.0933 253.09 60.08 253.104 60.08C253.25 60.08 253.39 60.2267 253.524 60.52C253.657 60.8 253.737 61.18 253.764 61.66C254.67 60.58 255.644 60.04 256.684 60.04C257.31 60.04 257.81 60.1933 258.184 60.5C258.557 60.8067 258.784 61.2467 258.864 61.82C259.784 60.6333 260.804 60.04 261.924 60.04C262.644 60.04 263.19 60.2467 263.564 60.66C263.95 61.0733 264.144 61.7 264.144 62.54V66.38C264.144 66.9133 264.217 67.28 264.364 67.48C264.524 67.6667 264.81 67.76 265.224 67.76ZM274.171 66.92C274.224 66.92 274.257 66.9533 274.271 67.02C274.297 67.0733 274.284 67.1133 274.231 67.14L272.171 68.12C272.117 68.1467 272.051 68.16 271.971 68.16C271.771 68.16 271.571 68.06 271.371 67.86C271.184 67.66 271.051 67.3867 270.971 67.04L270.051 67.54C269.704 67.7133 269.344 67.86 268.971 67.98C268.597 68.0867 268.264 68.14 267.971 68.14C267.544 68.14 267.204 68.0333 266.951 67.82C266.711 67.5933 266.591 67.2733 266.591 66.86C266.591 66.5533 266.664 66.3067 266.811 66.12C266.971 65.9333 267.191 65.78 267.471 65.66C267.764 65.5267 268.224 65.3533 268.851 65.14L270.891 64.48V62.9C270.891 62.1 270.811 61.5133 270.651 61.14C270.491 60.7533 270.231 60.56 269.871 60.56C269.551 60.56 269.297 60.68 269.111 60.92C268.924 61.16 268.811 61.5533 268.771 62.1C268.691 62.8467 268.297 63.22 267.591 63.22C266.964 63.22 266.651 62.9467 266.651 62.4C266.651 62.04 266.877 61.68 267.331 61.32C267.784 60.96 268.331 60.6667 268.971 60.44C269.611 60.2133 270.171 60.1 270.651 60.1C271.277 60.1 271.784 60.2867 272.171 60.66C272.571 61.0333 272.771 61.58 272.771 62.3V65.84C272.771 66.2267 272.837 66.5267 272.971 66.74C273.117 66.9533 273.317 67.06 273.571 67.06C273.757 67.06 273.951 67.0133 274.151 66.92H274.171ZM270.911 66.72C270.897 66.6267 270.891 66.4867 270.891 66.3V64.82L269.791 65.22C269.431 65.3533 269.171 65.5 269.011 65.66C268.864 65.82 268.791 66.0133 268.791 66.24C268.791 66.52 268.871 66.74 269.031 66.9C269.191 67.06 269.391 67.14 269.631 67.14C269.924 67.14 270.264 67.0467 270.651 66.86L270.911 66.72ZM276.769 61.24C276.769 61.6267 276.902 61.96 277.169 62.24C277.449 62.52 277.849 62.8133 278.369 63.12C278.875 63.4133 279.249 63.6467 279.489 63.82C279.742 63.98 279.969 64.2133 280.169 64.52C280.369 64.8133 280.469 65.1733 280.469 65.6C280.469 66.0533 280.355 66.48 280.129 66.88C279.902 67.28 279.562 67.6067 279.109 67.86C278.655 68.1 278.115 68.22 277.489 68.22C276.755 68.22 276.062 68.04 275.409 67.68C275.329 67.6 275.289 67.52 275.289 67.44L275.249 65.46C275.249 65.42 275.282 65.4 275.349 65.4C275.429 65.3867 275.475 65.3933 275.489 65.42C275.702 66.0867 276.055 66.6533 276.549 67.12C277.042 67.5867 277.542 67.82 278.049 67.82C278.329 67.82 278.549 67.7333 278.709 67.56C278.882 67.3867 278.969 67.1333 278.969 66.8C278.969 66.3067 278.829 65.92 278.549 65.64C278.269 65.3467 277.855 65.0467 277.309 64.74C276.842 64.4867 276.489 64.28 276.249 64.12C276.009 63.96 275.795 63.7333 275.609 63.44C275.422 63.1467 275.329 62.7867 275.329 62.36C275.329 61.5733 275.609 61 276.169 60.64C276.729 60.2667 277.415 60.08 278.229 60.08C278.535 60.08 278.809 60.1 279.049 60.14C279.302 60.18 279.582 60.26 279.889 60.38C280.009 60.42 280.069 60.4933 280.069 60.6C280.069 60.9333 280.062 61.1933 280.049 61.38L280.029 62.38C280.029 62.42 279.989 62.44 279.909 62.44C279.829 62.44 279.789 62.42 279.789 62.38C279.789 62.1267 279.682 61.8533 279.469 61.56C279.255 61.2533 278.975 60.9933 278.629 60.78C278.295 60.5667 277.949 60.46 277.589 60.46C277.042 60.46 276.769 60.72 276.769 61.24ZM203.44 77.96C201.853 77.96 200.713 78.9933 200.02 81.06C200.007 81.1 199.967 81.12 199.9 81.12C199.833 81.1067 199.8 81.08 199.8 81.04C199.853 80.5067 199.913 79.82 199.98 78.98C200.047 78.1267 200.08 77.4867 200.08 77.06C200.08 76.9933 200.113 76.96 200.18 76.96C200.26 76.96 200.3 76.9933 200.3 77.06C200.3 77.3533 200.68 77.5 201.44 77.5C202.587 77.54 203.927 77.56 205.46 77.56C206.247 77.56 207.08 77.5467 207.96 77.52L209.32 77.5C209.827 77.5 210.193 77.4667 210.42 77.4C210.66 77.3333 210.813 77.2 210.88 77C210.893 76.9467 210.933 76.92 211 76.92C211.08 76.92 211.12 76.9467 211.12 77C211.08 77.4 211.033 78.04 210.98 78.92C210.94 79.8 210.92 80.5067 210.92 81.04C210.92 81.08 210.887 81.1 210.82 81.1C210.753 81.1 210.713 81.08 210.7 81.04C210.5 80.0133 210.127 79.2467 209.58 78.74C209.033 78.22 208.36 77.96 207.56 77.96C207.173 77.96 206.913 78.0467 206.78 78.22C206.66 78.38 206.6 78.6933 206.6 79.16V88.38C206.6 88.7933 206.64 89.0933 206.72 89.28C206.8 89.4667 206.953 89.5933 207.18 89.66C207.407 89.7267 207.767 89.76 208.26 89.76C208.3 89.76 208.32 89.8 208.32 89.88C208.32 89.96 208.3 90 208.26 90C207.78 90 207.4 89.9933 207.12 89.98L205.46 89.96L203.84 89.98C203.56 89.9933 203.173 90 202.68 90C202.64 90 202.62 89.96 202.62 89.88C202.62 89.8 202.64 89.76 202.68 89.76C203.16 89.76 203.513 89.7267 203.74 89.66C203.98 89.5933 204.14 89.4667 204.22 89.28C204.313 89.08 204.36 88.78 204.36 88.38V79.12C204.36 78.6667 204.3 78.36 204.18 78.2C204.06 78.04 203.813 77.96 203.44 77.96ZM216.391 82.08C216.698 82.08 216.991 82.1933 217.271 82.42C217.564 82.6333 217.711 82.8933 217.711 83.2C217.711 83.48 217.624 83.7133 217.451 83.9C217.278 84.0733 217.051 84.16 216.771 84.16C216.571 84.16 216.404 84.12 216.271 84.04C216.151 83.96 216.024 83.84 215.891 83.68C215.771 83.5467 215.664 83.4533 215.571 83.4C215.491 83.3333 215.391 83.3 215.271 83.3C215.138 83.3 214.991 83.3533 214.831 83.46C214.684 83.5533 214.451 83.76 214.131 84.08V88.38C214.131 88.9133 214.258 89.28 214.511 89.48C214.764 89.6667 215.231 89.76 215.911 89.76C215.964 89.76 215.991 89.8 215.991 89.88C215.991 89.96 215.964 90 215.911 90C215.444 90 215.078 89.9933 214.811 89.98L213.191 89.96L212.011 89.98C211.811 89.9933 211.538 90 211.191 90C211.151 90 211.131 89.96 211.131 89.88C211.131 89.8 211.151 89.76 211.191 89.76C211.604 89.76 211.884 89.6667 212.031 89.48C212.178 89.28 212.251 88.9133 212.251 88.38V84.62C212.251 84.2067 212.198 83.9067 212.091 83.72C211.998 83.52 211.844 83.42 211.631 83.42C211.404 83.42 211.084 83.5133 210.671 83.7H210.631C210.591 83.7 210.558 83.6667 210.531 83.6C210.518 83.5333 210.524 83.4933 210.551 83.48L213.331 82.12C213.411 82.0933 213.458 82.08 213.471 82.08C213.618 82.08 213.751 82.22 213.871 82.5C214.004 82.7667 214.084 83.1333 214.111 83.6C214.658 83.04 215.104 82.6467 215.451 82.42C215.811 82.1933 216.124 82.08 216.391 82.08ZM225.715 88.68C225.741 88.68 225.768 88.7067 225.795 88.76C225.835 88.8133 225.841 88.8533 225.815 88.88C225.321 89.36 224.821 89.7067 224.315 89.92C223.808 90.1333 223.255 90.24 222.655 90.24C221.815 90.24 221.088 90.0667 220.475 89.72C219.861 89.36 219.395 88.8867 219.075 88.3C218.755 87.7 218.595 87.06 218.595 86.38C218.595 85.6067 218.795 84.8933 219.195 84.24C219.595 83.5733 220.141 83.0533 220.835 82.68C221.528 82.2933 222.301 82.1 223.155 82.1C223.981 82.1 224.615 82.28 225.055 82.64C225.495 82.9867 225.715 83.4667 225.715 84.08C225.715 84.4667 225.641 84.66 225.495 84.66H224.275L220.675 84.7C220.635 84.9533 220.615 85.2333 220.615 85.54C220.615 86.6867 220.881 87.5933 221.415 88.26C221.961 88.9267 222.708 89.26 223.655 89.26C223.988 89.26 224.335 89.2133 224.695 89.12C225.055 89.0267 225.381 88.8867 225.675 88.7L225.715 88.68ZM222.415 82.5C222.015 82.5 221.668 82.66 221.375 82.98C221.081 83.3 220.868 83.74 220.735 84.3L223.575 84.24C223.535 83.08 223.148 82.5 222.415 82.5ZM234.157 88.68C234.184 88.68 234.21 88.7067 234.237 88.76C234.277 88.8133 234.284 88.8533 234.257 88.88C233.764 89.36 233.264 89.7067 232.757 89.92C232.25 90.1333 231.697 90.24 231.097 90.24C230.257 90.24 229.53 90.0667 228.917 89.72C228.304 89.36 227.837 88.8867 227.517 88.3C227.197 87.7 227.037 87.06 227.037 86.38C227.037 85.6067 227.237 84.8933 227.637 84.24C228.037 83.5733 228.584 83.0533 229.277 82.68C229.97 82.2933 230.744 82.1 231.597 82.1C232.424 82.1 233.057 82.28 233.497 82.64C233.937 82.9867 234.157 83.4667 234.157 84.08C234.157 84.4667 234.084 84.66 233.937 84.66H232.717L229.117 84.7C229.077 84.9533 229.057 85.2333 229.057 85.54C229.057 86.6867 229.324 87.5933 229.857 88.26C230.404 88.9267 231.15 89.26 232.097 89.26C232.43 89.26 232.777 89.2133 233.137 89.12C233.497 89.0267 233.824 88.8867 234.117 88.7L234.157 88.68ZM230.857 82.5C230.457 82.5 230.11 82.66 229.817 82.98C229.524 83.3 229.31 83.74 229.177 84.3L232.017 84.24C231.977 83.08 231.59 82.5 230.857 82.5ZM237.316 83.24C237.316 83.6267 237.45 83.96 237.716 84.24C237.996 84.52 238.396 84.8133 238.916 85.12C239.423 85.4133 239.796 85.6467 240.036 85.82C240.29 85.98 240.516 86.2133 240.716 86.52C240.916 86.8133 241.016 87.1733 241.016 87.6C241.016 88.0533 240.903 88.48 240.676 88.88C240.45 89.28 240.11 89.6067 239.656 89.86C239.203 90.1 238.663 90.22 238.036 90.22C237.303 90.22 236.61 90.04 235.956 89.68C235.876 89.6 235.836 89.52 235.836 89.44L235.796 87.46C235.796 87.42 235.83 87.4 235.896 87.4C235.976 87.3867 236.023 87.3933 236.036 87.42C236.25 88.0867 236.603 88.6533 237.096 89.12C237.59 89.5867 238.09 89.82 238.596 89.82C238.876 89.82 239.096 89.7333 239.256 89.56C239.43 89.3867 239.516 89.1333 239.516 88.8C239.516 88.3067 239.376 87.92 239.096 87.64C238.816 87.3467 238.403 87.0467 237.856 86.74C237.39 86.4867 237.036 86.28 236.796 86.12C236.556 85.96 236.343 85.7333 236.156 85.44C235.97 85.1467 235.876 84.7867 235.876 84.36C235.876 83.5733 236.156 83 236.716 82.64C237.276 82.2667 237.963 82.08 238.776 82.08C239.083 82.08 239.356 82.1 239.596 82.14C239.85 82.18 240.13 82.26 240.436 82.38C240.556 82.42 240.616 82.4933 240.616 82.6C240.616 82.9333 240.61 83.1933 240.596 83.38L240.576 84.38C240.576 84.42 240.536 84.44 240.456 84.44C240.376 84.44 240.336 84.42 240.336 84.38C240.336 84.1267 240.23 83.8533 240.016 83.56C239.803 83.2533 239.523 82.9933 239.176 82.78C238.843 82.5667 238.496 82.46 238.136 82.46C237.59 82.46 237.316 82.72 237.316 83.24Z" fill="#00654E"/>
<g clip-path="url(#clip0_38_97)">
<path fill-rule="evenodd" clip-rule="evenodd" d="M159.145 34.9258C159.59 34.9258 160.035 34.9258 160.48 34.9258C159.036 37.5662 157.626 40.2381 156.25 42.9414C154.899 45.6433 153.711 48.4142 152.687 51.2539C151.841 53.4054 151.495 55.6319 151.648 57.9336C151.796 58.7736 152.266 59.3427 153.059 59.6406C159.496 60.1694 165.929 60.0951 172.355 59.418C173.529 60.8259 174.667 62.2607 175.77 63.7227C175.7 63.8997 175.551 63.9988 175.324 64.0195C168.531 65.085 161.703 65.4807 154.84 65.207C152.484 70.5371 150.109 75.8561 147.715 81.1641C148.338 81.367 148.981 81.4412 149.645 81.3867C150.506 78.4821 151.47 75.6122 152.539 72.7773C153.304 75.7863 154.021 78.8045 154.691 81.832C162.447 82.176 170.166 81.8297 177.848 80.793C179.028 82.3698 180.265 83.9036 181.559 85.3945C177.354 86.2789 173.099 86.8479 168.793 87.1016C162.705 87.4157 156.619 87.3909 150.535 87.0273C150.337 87.0768 150.139 87.1264 149.941 87.1758C147.875 89.476 146.217 92.049 144.969 94.8945C144.032 96.8656 144.081 98.7953 145.117 100.684C145.963 101.613 146.977 102.256 148.16 102.613C144.976 102.4 141.809 102.029 138.66 101.5C136.161 101.371 134.256 100.258 132.945 98.1602C132.178 96.15 132.524 94.3688 133.984 92.8164C137.342 88.8966 140.682 84.963 144.004 81.0156C142.568 80.7179 141.133 80.3714 139.699 79.9766C136.485 78.1857 136.015 75.8355 138.289 72.9258C142.081 68.4914 145.816 64.0134 149.496 59.4922C148.32 59.2393 147.132 59.0414 145.934 58.8984C143.307 58.4545 142.193 56.9454 142.594 54.3711C147.351 48.5755 152.051 42.7369 156.695 36.8555C157.372 36.0018 158.189 35.3586 159.145 34.9258Z" fill="#3DAD52"/>
<path opacity="0.993" fill-rule="evenodd" clip-rule="evenodd" d="M160.48 34.9258C161.223 34.9258 161.965 34.9258 162.707 34.9258C163.467 35.2122 164.135 35.6575 164.711 36.2617C169.453 42.3303 174.302 48.3173 179.258 54.2227C179.87 56.3391 179.152 57.7987 177.105 58.6016C175.539 58.9773 173.956 59.2493 172.355 59.418C165.929 60.0951 159.496 60.1694 153.059 59.6406C152.266 59.3427 151.796 58.7736 151.648 57.9336C151.495 55.6319 151.841 53.4054 152.688 51.2539C153.711 48.4142 154.899 45.6433 156.25 42.9414C157.626 40.2381 159.036 37.5662 160.48 34.9258Z" fill="#4CC067"/>
<path opacity="0.995" fill-rule="evenodd" clip-rule="evenodd" d="M175.77 63.7227C178.661 67.1262 181.556 70.5402 184.453 73.9648C185.576 76.2251 185.106 78.0806 183.043 79.5312C181.408 80.3319 179.676 80.7524 177.848 80.793C170.166 81.8297 162.447 82.176 154.691 81.832C154.022 78.8045 153.304 75.7863 152.539 72.7773C151.47 75.6122 150.506 78.4821 149.645 81.3867C148.981 81.4412 148.338 81.367 147.715 81.1641C150.109 75.8561 152.484 70.5371 154.84 65.207C161.703 65.4807 168.531 65.085 175.324 64.0195C175.551 63.9987 175.7 63.8997 175.77 63.7227Z" fill="#4CC067"/>
<path opacity="0.992" fill-rule="evenodd" clip-rule="evenodd" d="M181.559 85.3945C183.878 88.1843 186.228 90.9551 188.609 93.707C190.037 96.514 189.418 98.7653 186.754 100.461C185.31 101.125 183.801 101.546 182.227 101.723C180.24 99.2913 178.311 96.8172 176.438 94.3008C176.363 97.0216 176.339 99.7431 176.363 102.465C173.499 102.745 170.63 102.943 167.754 103.059C163.201 103.237 158.649 103.237 154.098 103.059C152.088 103.021 150.109 102.873 148.16 102.613C146.977 102.256 145.963 101.613 145.117 100.684C144.081 98.7953 144.032 96.8656 144.969 94.8945C146.217 92.049 147.875 89.476 149.941 87.1758C150.139 87.1264 150.337 87.0768 150.535 87.0273C156.619 87.3909 162.705 87.4157 168.793 87.1016C173.099 86.8479 177.354 86.2789 181.559 85.3945Z" fill="#4DC067"/>
<path opacity="0.98" fill-rule="evenodd" clip-rule="evenodd" d="M154.098 103.059C158.648 103.237 163.201 103.237 167.754 103.059C167.978 103.932 168.126 104.822 168.199 105.73C165.256 105.878 162.288 105.928 159.293 105.879C159.293 107.512 159.293 109.145 159.293 110.777C157.175 110.566 155.146 110.022 153.207 109.145C153.158 109.046 153.108 108.947 153.059 108.848C153.421 106.919 153.768 104.989 154.098 103.059Z" fill="#7F4A26"/>
<path fill-rule="evenodd" clip-rule="evenodd" d="M168.199 105.73C168.426 106.694 168.624 107.683 168.793 108.699C168.744 108.848 168.694 108.996 168.645 109.145C165.669 110.473 162.551 111.018 159.293 110.777C159.293 109.145 159.293 107.512 159.293 105.879C162.288 105.928 165.256 105.878 168.199 105.73Z" fill="#925C34"/>
</g>
<defs>
<clipPath id="clip0_38_97">
<rect width="76" height="76" fill="white" transform="translate(123 35)"/>
</clipPath>
</defs>
</svg>
